<svg xmlns="http://www.w3.org/2000/svg" xmlns:xlink="http://www.w3.org/1999/xlink" viewBox="0 0 830.34 665.26"><defs><style>.cls-1,.cls-12,.cls-8{fill:none;}.cls-2{fill:#f0f0f0;}.cls-3{fill:#2f2e41;}.cls-4{fill:#a0616a;}.cls-5{fill:#575a89;}.cls-15,.cls-6{opacity:0.1;}.cls-12,.cls-15,.cls-17,.cls-6{isolation:isolate;}.cls-7{fill:#f2f2f2;}.cls-16,.cls-8{stroke:#3f3d56;}.cls-12,.cls-16,.cls-17,.cls-8{stroke-miterlimit:10;stroke-width:2px;}.cls-9{fill:#3f3d56;}.cls-10{fill:#e6e8ec;}.cls-11{fill:#fff;}.cls-12,.cls-17{stroke:#6c63ff;opacity:0.3;}.cls-13{fill:#6c63ff;}.cls-14,.cls-15,.cls-16,.cls-17{fill:url(#Unnamed_Pattern);}</style><pattern id="Unnamed_Pattern" data-name="Unnamed Pattern" width="830.34" height="665.26" patternUnits="userSpaceOnUse" viewBox="0 0 830.35 665.26"><rect class="cls-1" width="830.34" height="665.26"/><polygon class="cls-2" points="188.44 506.62 73.28 433.39 145.18 320.32 284.41 408.85 222.24 506.62 188.44 506.62"/><path class="cls-3" d="M689.2,141.76c.63-.15,1.16.42,1.79.4a6,6,0,0,0,4.63-2.42,11.74,11.74,0,0,0,2-6.31c.16-2.23,0-4.48.41-6.68s1.3-4.57,1.72-6.91.27-5-1.24-6.79A15.25,15.25,0,0,0,696,110.9c-3-2.33-5.17-5.46-7.77-8.18s-5.88-5.14-9.63-5.37c-3.13-.2-6.14,1.15-9.24,1.6-3.47.51-7-.11-10.5.23s-7.24,2-8.38,5.35c-.84,2.46,0,5.2-.55,7.74a26,26,0,0,1-2.22,5.28,18.62,18.62,0,0,0-.76,13c.57,1.84,4,.54,4,2.46,0,.82,1.51,1.09,1.63,1.9a1.94,1.94,0,0,0,1.47,1.75c1,.12-.25,1-.11,0s-2.45-.18-2.43-1.17c0-2.77,2.32-5,2.88-7.73.7-3.42-1.33-7.4.67-10.25,1.56-2.22,4.8-2.46,7.45-1.86s5.24,1.79,8,1.62c2-.12,3.95-1,6-1.32s4.42.16,5.39,2c1.23,2.29-.59,5.15,0,7.69s3.58,4.16,4.15,6.78c.71,3.27-2.58,6.91-.79,9.73a1.9,1.9,0,0,0,2.23.92C688.07,142.7,688.41,141.94,689.2,141.76Z"/><polygon class="cls-4" points="709.88 303.21 707.22 312.84 711.87 319.15 714.19 304.87 709.88 303.21"/><path class="cls-5" d="M697.26,224.51l-1,21.92,5.31,43.5s-2.32,17.6,3.32,16.6,10,5.31,10,5.31c1-2,3.65-48.82,3.65-52.47s-3.65-52.79-3.65-52.79l-3.66-9.65Z"/><path class="cls-6" d="M697.26,224.51l-1,21.92,5.31,43.5s-2.32,17.6,3.32,16.6,10,5.31,10,5.31c1-2,3.65-48.82,3.65-52.47s-3.65-52.79-3.65-52.79l-3.66-9.65Z"/><path class="cls-4" d="M656.74,143.81c6.64,15.28-7,20.59-7,20.59l-1,3.65s41.51,14.28,35.2,9,4.65-33.21,4.65-33.21S650.1,128.53,656.74,143.81Z"/><path class="cls-6" d="M656.74,143.81c6.64,15.28-7,20.59-7,20.59l-1,3.65s41.51,14.28,35.2,9,4.65-33.21,4.65-33.21S650.1,128.53,656.74,143.81Z"/><path class="cls-5" d="M677.66,525.39S675.34,539,675.34,543s24.58,2,24.58,2,1.66-2.32,9.63,0,40.85,2.32,38.19-7.31S725.82,530,725.82,530s-10-8.3-12.62-11.62-7.31-2-7.31-2Z"/><path class="cls-5" d="M609.91,538.67c-2.66,1.33-5.31,14.28-5.31,14.28v18.27c0,9.63,25.9,6,33.21,2.32S632.17,552,632.17,552l-4.32-13.28S612.57,537.34,609.91,538.67Z"/><path class="cls-3" d="M677,288.6l-27.9-3.32-23.25,9s-5.31,8-1.82,15.55,2.15,88.72,2.15,88.72-15.61,94.65-17.93,106.6-1,32.21-1.33,34.87,19.93,1.66,24.91,1.66,9.3-46.49,9.3-46.49l25.57-87.67L676,528c10,9.3,33.87-12.29,33.87-12.29s-5.65-1-3.32-4.65-2.32-19.93-2.32-19.93l3.65-69.08s6.64-106.6,7-108.26S701.19,300,701.19,300Z"/><circle class="cls-4" cx="673.01" cy="131.85" r="23.25"/><path class="cls-5" d="M619.21,301.55c-3.32,5.31,2.32,14.28,2.32,14.28s3.65-1.33,5.31-7.64,13.95-.66,20.59-5.31,44.83,0,54.8-1.33-.66-21.59-.66-21.59c4.32-8.63,3-55.13,3-55.13a48.19,48.19,0,0,0,9.63-14.94c3.32-8.63-6-24.24-12.29-25.57s-18.27-13.95-18.27-13.95,0,3-4.65,3-28.23-11.29-28.23-11.29a128.81,128.81,0,0,1-19.59,6.64A20.85,20.85,0,0,0,616.56,182S622.53,296.24,619.21,301.55Z"/><path class="cls-4" d="M630.68,313.69s5.47,17.42,7.8,16.75,8-20.26,8-20.26l-5.31-3.32Z"/><path class="cls-3" d="M693.19,139.44c.63-.15,1.16.42,1.79.4a6,6,0,0,0,4.63-2.42,11.74,11.74,0,0,0,2-6.31c.16-2.23,0-4.48.41-6.68s1.3-4.57,1.72-6.91.27-5-1.24-6.79a15.25,15.25,0,0,0-2.49-2.15c-3-2.33-5.17-5.46-7.77-8.18s-5.88-5.14-9.63-5.37c-3.13-.2-6.14,1.15-9.24,1.6-3.47.51-7-.11-10.5.23s-7.24,2-8.38,5.35c-.84,2.46,0,5.2-.55,7.74a26,26,0,0,1-2.22,5.28,18.62,18.62,0,0,0-.76,13c.57,1.84,6.88-.07,7.44-2.78.7-3.42-1.33-7.4.67-10.25,1.56-2.22,4.8-2.46,7.45-1.86s5.24,1.79,8,1.62c2-.12,3.95-1,6-1.32s4.42.16,5.39,2c1.23,2.29-.59,5.15,0,7.69s3.58,4.16,4.15,6.78c.71,3.27-2.58,6.91-.79,9.73a1.9,1.9,0,0,0,2.23.92C692.05,140.37,692.4,139.62,693.19,139.44Z"/><path class="cls-6" d="M635,190.13s-5.81,54-8.8,56.29,3.65,23.91,4.65,27.23,13.95,28.89,15.94,32.88-17.27,8-17.27,8S605.27,279,599,261.7,618.88,182,618.88,182l10.79,5.81Z"/><path class="cls-5" d="M641.13,186.65s-14.28,57.45-17.27,59.78,3.65,23.91,4.65,27.23,13.95,28.89,15.94,32.88-17.27,8-17.27,8S602.94,279,596.63,261.7,616.56,182,616.56,182l13.28-3.65Z"/><polygon class="cls-2" points="505.32 160.59 547.73 190.69 577.83 148.29 535.43 118.19 505.32 160.59"/><ellipse class="cls-7" cx="203.97" cy="653.25" rx="182.62" ry="12.01"/><ellipse class="cls-7" cx="647.72" cy="603.67" rx="182.62" ry="12.01"/><line class="cls-8" x1="645.24" y1="579.7" x2="21.34" y2="579.62"/><circle class="cls-8" cx="574.34" cy="224.62" r="11"/><rect class="cls-8" x="131.34" y="66.62" width="24" height="24"/><rect class="cls-8" x="162.34" y="401.62" width="24" height="24"/><line class="cls-8" x1="32.32" y1="507.1" x2="32.32" y2="581.51"/><circle class="cls-9" cx="32.32" cy="507.1" r="10.52"/><path class="cls-9" d="M0,524.38C30.82,520.62,32.32,553,32.32,553"/><rect class="cls-9" x="505.15" y="131.47" width="8.52" height="70.26" rx="2.29" ry="2.29"/><rect class="cls-9" x="221.86" y="76.43" width="4.78" height="23.13" rx="1.5" ry="1.5"/><rect class="cls-9" x="221.69" y="118.78" width="5.39" height="40.26" rx="1.69" ry="1.69"/><rect class="cls-9" x="221.78" y="173.12" width="5.13" height="40.61" rx="1.61" ry="1.61"/><rect class="cls-9" x="224.57" width="285.18" height="579.58" rx="35.69" ry="35.69"/><rect class="cls-10" x="339.65" y="17.31" width="39.82" height="8.09" rx="2.54" ry="2.54"/><circle class="cls-10" cx="390.08" cy="21.35" r="4.59"/><path class="cls-11" d="M492.14,37.74A22.65,22.65,0,0,0,469.49,15.1H436.84V19a18.65,18.65,0,0,1-18.65,18.65H314.11A18.66,18.66,0,0,1,295.46,19V15.1H264.83a22.65,22.65,0,0,0-22.65,22.65V541.84a22.65,22.65,0,0,0,22.65,22.64H469.49a22.65,22.65,0,0,0,22.65-22.64V37.75Z"/><line class="cls-12" x1="492.37" y1="271.47" x2="241.99" y2="99.59"/><line class="cls-12" x1="241.99" y1="271.47" x2="492.37" y2="99.59"/><line class="cls-12" x1="492.37" y1="499.55" x2="241.99" y2="327.67"/><line class="cls-12" x1="241.99" y1="499.55" x2="492.37" y2="327.67"/><rect class="cls-13" x="532.03" y="431.79" width="250.38" height="171.88"/><polygon class="cls-9" points="532.03 603.67 532.03 554.51 585.09 488.92 605.58 513.59 647.72 455.75 711.35 549.13 729.35 500 782.42 603.67 532.03 603.67"/><circle class="cls-9" cx="751.84" cy="471.45" r="18.18"/><rect class="cls-13" x="73.41" y="479.71" width="250.38" height="171.88"/><rect class="cls-9" x="93.66" y="517.73" width="209.89" height="9.92"/><rect class="cls-9" x="93.66" y="539.21" width="209.89" height="9.92"/><rect class="cls-9" x="93.66" y="560.7" width="209.89" height="9.92"/><rect class="cls-9" x="93.66" y="582.18" width="209.89" height="9.92"/><rect class="cls-9" x="93.66" y="603.67" width="209.89" height="9.92"/></pattern></defs><title>Varlık 1</title><g id="katman_2" data-name="katman 2"><g id="aff71ab5-257b-4a41-8490-967d8a55fbdf"><polygon class="cls-14" points="222.24 506.62 284.41 408.85 145.18 320.32 73.28 433.39 188.44 506.62 222.24 506.62"/><path class="cls-14" d="M687.37,143a1.9,1.9,0,0,1-2.23-.92c-1.79-2.82,1.51-6.46.79-9.73-.57-2.62-3.55-4.17-4.15-6.78s1.23-5.39,0-7.69c-1-1.8-3.37-2.27-5.39-2s-3.93,1.2-6,1.32c-2.71.17-5.3-1-8-1.62s-5.89-.36-7.45,1.86c-2,2.86,0,6.83-.67,10.25-.55,2.71-2.83,5-2.88,7.73,0,1,2.57.19,2.43,1.17s1.09.12.11,0a1.94,1.94,0,0,1-1.47-1.75c-.12-.81-1.64-1.08-1.62-1.9,0-1.92-3.43-.63-4-2.46a18.62,18.62,0,0,1,.76-13,26,26,0,0,0,2.22-5.28c.51-2.55-.29-5.29.55-7.74,1.13-3.31,4.89-5,8.38-5.35s7,.27,10.5-.23c3.11-.45,6.11-1.8,9.24-1.6,3.76.23,7,2.66,9.63,5.37s4.82,5.85,7.77,8.18a15.25,15.25,0,0,1,2.49,2.15c1.51,1.84,1.66,4.45,1.24,6.79s-1.33,4.57-1.72,6.91-.25,4.45-.41,6.68a11.74,11.74,0,0,1-2,6.31,6,6,0,0,1-4.63,2.42c-.63,0-1.16-.55-1.79-.4C688.41,141.94,688.07,142.7,687.37,143Z"/><polygon class="cls-14" points="714.19 304.87 711.87 319.15 707.22 312.84 709.88 303.21 714.19 304.87"/><path class="cls-14" d="M711.2,196.94l3.66,9.65s3.65,49.13,3.65,52.79-2.66,50.48-3.65,52.47c0,0-4.32-6.31-10-5.31s-3.32-16.6-3.32-16.6l-5.31-43.5,1-21.92Z"/><path class="cls-15" d="M711.2,196.94l3.66,9.65s3.65,49.13,3.65,52.79-2.66,50.48-3.65,52.47c0,0-4.32-6.31-10-5.31s-3.32-16.6-3.32-16.6l-5.31-43.5,1-21.92Z"/><path class="cls-14" d="M688.62,143.81s-11,27.9-4.65,33.21-35.2-9-35.2-9l1-3.65s13.62-5.31,7-20.59S688.62,143.81,688.62,143.81Z"/><path class="cls-15" d="M688.62,143.81s-11,27.9-4.65,33.21-35.2-9-35.2-9l1-3.65s13.62-5.31,7-20.59S688.62,143.81,688.62,143.81Z"/><path class="cls-14" d="M705.89,516.42s4.65-1.33,7.31,2S725.82,530,725.82,530s19.26-2,21.92,7.64-30.22,9.63-38.19,7.31-9.63,0-9.63,0-24.58,2-24.58-2,2.32-17.6,2.32-17.6Z"/><path class="cls-14" d="M627.85,538.67,632.17,552s13,17.93,5.65,21.59-33.21,7.31-33.21-2.32V552.95s2.66-13,5.31-14.28S627.85,538.67,627.85,538.67Z"/><path class="cls-14" d="M701.19,300s14,12.17,13.67,13.83-7,108.26-7,108.26l-3.65,69.08s4.65,16.27,2.32,19.93,3.32,4.65,3.32,4.65S686,537.34,676,528l-9.3-120.55-25.57,87.67s-4.32,46.49-9.3,46.49-25.24,1-24.91-1.66-1-22.91,1.33-34.87,17.93-106.6,17.93-106.6,1.34-81.14-2.15-88.72,1.82-15.55,1.82-15.55l23.25-9L677,288.6Z"/><circle class="cls-14" cx="673.01" cy="131.85" r="23.25"/><path class="cls-14" d="M616.56,182a20.85,20.85,0,0,1,14.61-13.28,128.81,128.81,0,0,0,19.59-6.64s23.58,11.29,28.23,11.29,4.65-3,4.65-3,12,12.62,18.27,13.95,15.61,16.94,12.29,25.57a48.19,48.19,0,0,1-9.63,14.94s1.33,46.49-3,55.13c0,0,10.63,20.26.66,21.59s-48.15-3.32-54.8,1.33-18.93-1-20.59,5.31-5.31,7.64-5.31,7.64-5.65-9-2.32-14.28S616.56,182,616.56,182Z"/><path class="cls-14" d="M641.13,306.87l5.31,3.32s-5.65,19.59-8,20.26-7.8-16.75-7.8-16.75Z"/><path class="cls-14" d="M691.35,140.69a1.9,1.9,0,0,1-2.23-.92c-1.79-2.82,1.51-6.46.79-9.73-.57-2.62-3.55-4.17-4.15-6.78s1.23-5.39,0-7.69c-1-1.8-3.37-2.27-5.39-2s-3.93,1.2-6,1.32c-2.71.17-5.3-1-8-1.62s-5.89-.36-7.45,1.86c-2,2.86,0,6.83-.67,10.25-.55,2.71-6.87,4.62-7.44,2.78a18.62,18.62,0,0,1,.76-13,26,26,0,0,0,2.22-5.28c.51-2.55-.29-5.29.55-7.74,1.13-3.31,4.89-5,8.38-5.35s7,.27,10.5-.23c3.11-.45,6.11-1.8,9.24-1.6,3.76.23,7,2.66,9.63,5.37s4.82,5.85,7.77,8.18a15.25,15.25,0,0,1,2.49,2.15c1.51,1.84,1.66,4.45,1.24,6.79s-1.33,4.57-1.72,6.91-.25,4.45-.41,6.68a11.74,11.74,0,0,1-2,6.31,6,6,0,0,1-4.63,2.42c-.63,0-1.16-.55-1.79-.4C692.4,139.62,692.05,140.37,691.35,140.69Z"/><path class="cls-15" d="M629.67,187.81,618.88,182S592.65,244.43,599,261.7s30.55,52.8,30.55,52.8,19.26-4,17.27-8S631.83,277,630.84,273.66s-7.64-24.91-4.65-27.23,8.8-56.29,8.8-56.29Z"/><path class="cls-14" d="M629.84,178.34,616.56,182s-26.24,62.43-19.93,79.7,30.55,52.8,30.55,52.8,19.26-4,17.27-8S629.51,277,628.51,273.66s-7.64-24.91-4.65-27.23,17.27-59.78,17.27-59.78Z"/><polygon class="cls-14" points="535.43 118.19 577.83 148.29 547.73 190.69 505.32 160.59 535.43 118.19"/><ellipse class="cls-14" cx="203.97" cy="653.25" rx="182.62" ry="12.01"/><ellipse class="cls-14" cx="647.72" cy="603.67" rx="182.62" ry="12.01"/><line class="cls-16" x1="21.34" y1="579.62" x2="645.24" y2="579.7"/><circle class="cls-16" cx="574.34" cy="224.62" r="11"/><rect class="cls-16" x="131.34" y="66.62" width="24" height="24"/><rect class="cls-16" x="162.34" y="401.62" width="24" height="24"/><line class="cls-16" x1="32.32" y1="581.51" x2="32.32" y2="507.1"/><circle class="cls-14" cx="32.32" cy="507.1" r="10.52"/><path class="cls-14" d="M32.32,553S30.82,520.62,0,524.38"/><rect class="cls-14" x="505.15" y="131.47" width="8.52" height="70.26" rx="2.29" ry="2.29"/><rect class="cls-14" x="221.86" y="76.43" width="4.78" height="23.13" rx="1.5" ry="1.5"/><rect class="cls-14" x="221.69" y="118.78" width="5.39" height="40.26" rx="1.69" ry="1.69"/><rect class="cls-14" x="221.78" y="173.12" width="5.13" height="40.61" rx="1.61" ry="1.61"/><rect class="cls-14" x="224.57" width="285.18" height="579.58" rx="35.69" ry="35.69"/><rect class="cls-14" x="339.65" y="17.31" width="39.82" height="8.09" rx="2.54" ry="2.54"/><circle class="cls-14" cx="390.08" cy="21.35" r="4.59"/><path class="cls-14" d="M492.14,37.75V541.84a22.65,22.65,0,0,1-22.65,22.64H264.83a22.65,22.65,0,0,1-22.65-22.64V37.75A22.65,22.65,0,0,1,264.83,15.1h30.63V19a18.66,18.66,0,0,0,18.65,18.65H418.19A18.65,18.65,0,0,0,436.84,19V15.1h32.65a22.65,22.65,0,0,1,22.65,22.65Z"/><line class="cls-17" x1="241.99" y1="99.59" x2="492.37" y2="271.47"/><line class="cls-17" x1="492.37" y1="99.59" x2="241.99" y2="271.47"/><line class="cls-17" x1="241.99" y1="327.67" x2="492.37" y2="499.55"/><line class="cls-17" x1="492.37" y1="327.67" x2="241.99" y2="499.55"/><rect class="cls-14" x="532.03" y="431.79" width="250.38" height="171.88"/><polygon class="cls-14" points="782.42 603.67 729.35 500 711.35 549.13 647.72 455.75 605.58 513.59 585.09 488.92 532.03 554.51 532.03 603.67 782.42 603.67"/><circle class="cls-14" cx="751.84" cy="471.45" r="18.18"/><rect class="cls-14" x="73.41" y="479.71" width="250.38" height="171.88"/><rect class="cls-14" x="93.66" y="517.73" width="209.89" height="9.92"/><rect class="cls-14" x="93.66" y="539.21" width="209.89" height="9.92"/><rect class="cls-14" x="93.66" y="560.7" width="209.89" height="9.92"/><rect class="cls-14" x="93.66" y="582.18" width="209.89" height="9.92"/><rect class="cls-14" x="93.66" y="603.67" width="209.89" height="9.92"/></g></g></svg>